<?xml version="1.0" encoding="UTF-8"?>
<svg width="21.242mm" height="79.239mm" version="1.1" viewBox="0 0 75.265756 280.76861"
   xmlns="http://www.w3.org/2000/svg" xmlns:cc="http://creativecommons.org/ns#"
   xmlns:dc="http://purl.org/dc/elements/1.1/" xmlns:rdf="http://www.w3.org/1999/02/22-rdf-syntax-ns#">
   <g transform="translate(-315.04 -181.98)">
      <rect x="316.51" y="183.45" width="72.32" height="277.82" fill="none" stroke="#ff2d00" stroke-linecap="square"
         stroke-width="2.9456" style="paint-order:stroke markers fill" />
      <g transform="translate(1.7585 -3.9535)" fill-rule="evenodd" shape-rendering="auto">
         <path
            d="m346.23 192.65c-1.1726 1.2275-4.6175 1.5297-3.6184 3.6065 0.90293 3.8212 0.71477 7.8495-0.21234 11.647-1.3934 0.2749-3.6894-0.24578-2.0587-1.9105-1.6091-2.374-3.2179-4.7481-4.827-7.1221-1.558 0.59427-4.3064 0.65785-5.0001 1.9067 1.3559 5.4036 0.0364 11.12-2.6521 15.897-0.4446 1.3486-2.8508 3.307-0.25677 3.5841 1.572 1.2089 2.8229 0.53484 3.8193-0.9799 1.1269-1.2438 2.1011-2.6178 2.9747-4.0488 1.6848 0.16415 4.3769-0.37235 5.4552 0.0165-4.2387 9.1638-11.572 16.418-19.345 22.658 2.5522 0.3762 5.0645 0.98861 7.6253 1.3151 6.8207-6.0072 13.313-12.589 18.02-20.422 0.81722-0.31201 1.8877 1.9015 2.7877 2.632 4.8955 5.7103 9.4408 11.711 13.809 17.832 6.9453-0.93858 13.968-0.72563 20.954-0.97456-0.6984-1.5788-0.1374-4.4601-2.6123-3.6616-4.1978 0.23629-8.3935-0.83023-12.012-2.9536-4.587-2.7226-8.3318-6.6236-12.057-10.392-2.3432-2.4238-4.6254-4.9072-7.0298-7.2713 6.623-0.66228 13.255-1.2359 19.878-1.8982-0.4536-1.5866-2.0725-2.6957-3.1715-3.9248-1.9264-1.8226-3.9396-3.5904-6.2243-4.954-1.7495 3.1708-5.6189 3.8834-8.9216 4.0831-1.8968 0.42786-0.0803-2.5132-0.3167-3.701 0.0812-1.5856 0.63866-3.3693 0.1838-4.8502-1.6854-2.0751-3.3278-4.1933-5.192-6.114z"
            fill="#ff2d00" />
         <path
            d="m355.59 459.99c1.1725-1.2275 4.6174-1.5297 3.6183-3.6065-0.9028-3.8212-0.71483-7.8495 0.21241-11.647 1.3934-0.27492 3.6893 0.24587 2.0586 1.9105 1.6091 2.374 3.218 4.7481 4.8271 7.1221 1.5579-0.59426 4.3063-0.65787 5-1.9067-1.3558-5.4036-0.036-11.12 2.6521-15.897 0.4446-1.3486 2.8508-3.307 0.2568-3.5841-1.572-1.2089-2.8229-0.53477-3.8193 0.9799-1.1269 1.2437-2.1011 2.6178-2.9747 4.0488-1.6849-0.16414-4.377 0.37236-5.4553-0.0165 4.2387-9.1637 11.572-16.419 19.345-22.658-2.5522-0.3762-5.0645-0.9886-7.6253-1.3151-6.8208 6.0071-13.313 12.589-18.02 20.421-0.81722 0.31201-1.8877-1.9015-2.7878-2.632-4.8956-5.7103-9.4409-11.711-13.809-17.832-6.9452 0.93856-13.968 0.72562-20.954 0.97455 0.6984 1.5788 0.13739 4.4601 2.6123 3.6616 4.1978-0.23628 8.3935 0.83024 12.012 2.9536 4.587 2.7225 8.3318 6.6236 12.057 10.392 2.3432 2.4238 4.6254 4.9073 7.0298 7.2713-6.623 0.66227-13.255 1.2359-19.878 1.8982 0.45367 1.5866 2.0725 2.6956 3.1716 3.9248 1.9264 1.8226 3.9396 3.5904 6.2244 4.954 1.7495-3.1708 5.6189-3.8834 8.9216-4.0831 1.8968-0.42786 0.0803 2.5132 0.31667 3.701-0.0812 1.5856-0.63867 3.3693-0.18377 4.8502 1.6854 2.0751 3.3277 4.1934 5.192 6.114z"
            fill="#ff2d00" />
         <path transform="matrix(.038262 -.0046955 0 .044457 459.3 250.9)"
            d="m-2866 1017.3c7.054 204.72 8.179 409.73 10.85 614.45-25.78 47.689 0.017 87.662 33.171 124.55 16.925 16.336 62.05 83.024 54.039 27.636 5.0752-198.68-6.1527-397.71 6.3634-596.17-0.3243-38.658 37.679-78.375-14.625-96.041-30.506-24.108-60.017-49.433-89.798-74.421z"
            fill="#ff2d00" />
      </g>
   </g>
</svg>