<?xml version="1.0" encoding="UTF-8"?>
<svg width="21.242mm" height="79.239mm" version="1.1" viewBox="0 0 75.266 280.77" xmlns="http://www.w3.org/2000/svg"
   xmlns:cc="http://creativecommons.org/ns#" xmlns:dc="http://purl.org/dc/elements/1.1/"
   xmlns:rdf="http://www.w3.org/1999/02/22-rdf-syntax-ns#">
   <g transform="translate(-315.04 -181.98)" shape-rendering="auto">
      <g transform="translate(953.92 -870.38)" fill-rule="evenodd">
         <path
            d="m-609.95 1061.6c-0.72959 1.5403-2.7497 3.4082-1.5037 5.1327 1.6585 2.3174 4.1582 3.8034 6.1473 5.7986-7.2669 0.5075-14.548 0.7483-21.828 1.0013 3.2702 2.2009 6.54 4.4024 9.8101 6.6035 3.939-0.3956 7.8781-0.7911 11.817-1.1866-0.30929 1.7323 0.0897 5.2141-2.0466 5.3711-6.3038 0.3832-12.617 0.5837-18.928 0.7941 3.2758 2.2055 6.552 4.4106 9.8279 6.616 2.0088-0.083 5.0735-0.7416 6.447-0.479-5.1382 6.5822-12.019 11.499-19.094 15.801-0.95848 0.5485-2.0751 1.1493-0.27864 1.0082 2.2034 0.1329 4.4222 0.1304 6.6071 0.4769 7.8166-2.2151 14.23-7.7934 19.209-14.035 0.72448-0.9774 1.3602-2.4343 2.401-0.9851 5.7485 4.7401 11.08 9.9824 17.018 14.49 1.8348 0.9585 4.1534-0.1116 6.1864 0.031 1.6608-0.3511 4.4798 0.1454 5.4433-0.6583-0.5075-1.7419-1.1896-3.4591-2.2297-4.956-5.4196-0.8444-10.274-3.7292-14.706-6.8256-2.4972-1.793-4.8588-3.7703-7.1069-5.8658 6.6273-0.6656 13.255-1.3311 19.882-1.9965-3.7455-2.1511-7.4856-4.3116-11.234-6.4574-3.2002 0.9989-6.4801 1.7504-9.8007 2.2155 0.72245-1.6718 0.40119-4.1842 1.2111-5.4294 6.3839-0.6411 12.768-1.2822 19.152-1.9232-3.7451-2.1518-7.4851-4.3123-11.233-6.4584-2.363 0.8449-4.835 1.3164-7.284 1.8333-0.6367-1.8435-2.791-2.442-4.2004-3.6143-3.2109-2.1266-6.4741-4.1797-9.6855-6.3024z"
            fill="#ff2d00" />
         <path
            d="m-592.55 1323.8c0.72953-1.5403 2.7497-3.4081 1.5037-5.1326-1.6585-2.3174-4.1582-3.8034-6.1473-5.7986 7.2668-0.5074 14.548-0.7482 21.827-1.0013-3.2702-2.2009-6.54-4.4024-9.81-6.6035-3.939 0.3955-7.8781 0.7911-11.817 1.1866 0.3093-1.7323-0.0897-5.2141 2.0466-5.3711 6.3038-0.3832 12.617-0.5837 18.928-0.7941-3.2759-2.2055-6.552-4.4106-9.8279-6.616-2.0088 0.083-5.0735 0.7416-6.447 0.479 5.1381-6.5822 12.019-11.499 19.094-15.801 0.95848-0.5485 2.0751-1.1492 0.27864-1.0082-2.2034-0.1328-4.4222-0.1304-6.6071-0.4768-7.8166 2.215-14.23 7.7933-19.209 14.035-0.72448 0.9774-1.3602 2.4343-2.401 0.9851-5.7485-4.7401-11.08-9.9824-17.018-14.49-1.8348-0.9585-4.1534 0.1116-6.1864-0.031-1.6608 0.3511-4.4798-0.1454-5.4433 0.6583 0.5075 1.7419 1.1896 3.4591 2.2297 4.956 5.4196 0.8444 10.274 3.7292 14.706 6.8256 2.4972 1.7929 4.8588 3.7703 7.1069 5.8658-6.6273 0.6656-13.255 1.3311-19.882 1.9965 3.7455 2.151 7.4856 4.3116 11.234 6.4573 3.2002-0.9988 6.4801-1.7504 9.8007-2.2154-0.72245 1.6718-0.4012 4.1843-1.2111 5.4294-6.3839 0.6411-12.768 1.2822-19.152 1.9232 3.7451 2.1518 7.4851 4.3123 11.233 6.4584 2.3627-0.8449 4.8343-1.3161 7.283-1.8333 0.63667 1.8436 2.791 2.442 4.2004 3.6142 3.2119 2.1266 6.4723 4.1798 9.6865 6.3024z"
            fill="#ff2d00" />
         <path
            d="m-606.1 1152.5c-0.15201 0.013-0.23731 0.1204-0.22704 0.3607 0.19746 4.6161-1.5106 9.7412-1.5106 9.7412s0.17714 0.083 0.26367 0.1263c-0.70087 0.049-1.6987-9e-4 -1.1188 0.4761 0.66703 0.671 1.3343 1.3413 2.0013 2.0123 0.25844-0.083 0.42902-0.1508 0.66651-0.2307-0.38242 4.7668-2.0321 11.451-2.3401 12.665-1.9889 0.4444-3.9803 0.8524-5.7678 1.1902 0.847 0.6263 1.6927 1.2542 2.5397 1.8805 6.9669-1.7264 13.984-3.2428 20.947-4.986-1.0061-0.7497-2.0055-1.509-3.0542-2.199-2.2053 0.94-4.1124 1.3539-6.1816 1.9134 2.3059-4.9398 2.8674-13.358 2.8674-13.358-0.94355-0.9553-1.8865-1.9169-2.8876-2.8107-2.5423 2.1102-3.5802 2.4223-6.0938 3.0633 0.68048-1.1657 1.322-3.1349 2.8752-7.8721-0.6702-0.3889-2.3208-2.0286-2.9796-1.9734zm6.4563 10.268c0.0264 1.6142-1.1499 7.3527-1.9501 11.083-1.2173-0.7835-2.2945-1.4044-3.0578-1.7963 0.56654-1.9367 1.2155-4.1092 1.9904-6.4728-0.36572-0.2122-1.0011-0.7399-1.6168-1.203 1.6371-0.5994 2.9176-1.1095 4.6344-1.6113zm-5.3961 10.611c0.83046 0.8867 1.7949 1.9312 2.3419 2.8729-1.0917 0.3001-2.2491 0.5927-3.4442 0.8789 0.21916-0.6788 0.6027-2.023 1.1023-3.7518zm2.84 10.375c-1.9597 1.1763-0.30614 3.5855-0.69031 5.4474-0.29002 1.5506 0.38115 4.2937-1.1609 4.9329 0.30684-0.6799 0.24088-1.2831-0.34241-1.7798l-3.5248-4.6692c-1.2192 0.8288-0.8999 1.7453-0.0311 2.8253 0.4163 1.242 1.7669 3.2036 1.3129 4.1162-1.1358 0.4042-3.8021 0.2883-4.0247 0.9558 0.73091 0.7351 1.4609 1.4696 2.1918 2.2046l4.389-1.1773c-1.5968 5.591-4.6557 10.662-8.3514 15.112 1.9987 0.9065 2.8384-0.8323 3.9862-2.179 2.8973-3.5011 5.1775-7.5138 6.6156-11.829 2.9125 4.2038 5.394 8.7938 9.0802 12.394 2.026 0.133 4.4378-0.9882 6.654-1.1444-0.49681-2.0677-2.7461-1.7729-4.3524-2.3419-1.7865-0.7316-3.0249-2.3396-4.4183-3.62-2.2033-2.2659-4.2039-4.719-6.1395-7.2144 3.078-0.6711 6.0808-1.6322 9.1223-2.4444-1.0911-0.7386-2.109-2.2233-3.2538-2.3328-0.69551 0.3518-2.4722 1.532-1.3879 0.04 0.50759-1.6045 2.4631-3.131 1.2414-4.801-0.25376-1.3251-1.3496-2.8254-2.3236-1.3733 0.0897 2.7967-0.63095 5.5731-1.8091 8.0951-2.1326 1.1726-0.50867-1.7944-0.69581-2.959 0.56987-2.3198 0.0244-4.4334-1.8439-5.9674-0.0809-0.097-0.16349-0.1945-0.24354-0.2912zm5.2606 27.883c-1.3665 1.1442-0.89605 2.7182-0.75257 4.2664-0.14016 1.4183 0.63454 3.6459-0.51819 4.4641-0.98618-0.6743-1.8797-3.6587-2.948-2.1973-0.87906 0.8072-2.6168 2.5345-2.0599 0.2729 0.31058-1.6639-0.37436-3.1247-1.2836-4.4696-0.70567-1.7493-1.977 1.4651-1.2964 2.362-0.0668 1.9041 1.147 5.0738-1.6827 5.1581-1.1817 0.3782-3.5602 0.5635-2.1002 2.3712 0.43738 1.4756 1.372 1.2 2.3767 0.5823 0.76018-0.3607 1.75-1.0122 1.1298 0.4266-0.8565 4.8728-2.1528 9.7092-4.3011 14.182-0.74507 0.3651-3.3265 0.2762-3.0615 0.857 0.74197 0.5652 1.4828 1.1303 2.2247 1.6955 9.0621-2.1513 18.209-3.9236 27.286-6.0058-0.29153-1.1628-1.4264-1.3339-2.3987-1.745-1.7354-0.8958-3.723-1.7193-4.6088-3.5889-1.7648-2.5834-3.3895-5.2797-4.6106-8.1665 1.8001-0.8131 3.5996-1.6258 5.3998-2.4389-0.99498-0.6839-1.8935-3.6937-2.9736-2.1882-0.75556 0.613-2.6432 2.6314-2.1167 0.5182 0.0205-1.5945 0.37442-3.3299-0.71778-4.6692-0.32092-0.5662-0.65056-1.1341-0.98693-1.6864zm-4.9915 10.426c0.66676 0.9724 0.99217 3.0281 2.3822 1.8457 0.76955-0.3017 2.0666-1.2822 1.355 0.3717-0.40362 1.2892-0.41411 3.9497-1.3019 4.3103-1.3421-1.4879-4.9676-1.9858-4.14-4.4092-0.25188-1.3029 0.63152-1.7503 1.6644-2.1002zm5.7935 3.5852c1.5973 2.9456 3.0456 5.9693 4.3982 9.0344-2.7459 0.7669-5.5227 1.4141-8.3002 2.0544 1.6454-3.5579 3.173-7.219 3.902-11.089zm-8.0951 2.0105c1.1236 1.6632 3.9175 3.1228 3.7756 5.1159-0.91844 1.8643-0.94854 5.0191-3.6493 4.8981-1.1342 0.077-3.6469 1.1842-3.8947 0.5859 1.7725-3.3199 2.985-6.9254 3.7683-10.6z"
            fill="#ff2d00" />
      </g>
      <path d="m315.04 181.98v280.77h75.266v-280.77zm2.9453 2.9453h69.375v274.88h-69.375z" fill="#ff2d00" />
   </g>
</svg>