<?xml version="1.0" encoding="UTF-8"?>
<svg width="21.242mm" height="79.239mm" version="1.1" viewBox="0 0 75.265756 280.76861"
   xmlns="http://www.w3.org/2000/svg" xmlns:cc="http://creativecommons.org/ns#"
   xmlns:dc="http://purl.org/dc/elements/1.1/" xmlns:rdf="http://www.w3.org/1999/02/22-rdf-syntax-ns#">
   <g transform="translate(-315.04 -181.98)" shape-rendering="auto">
      <g transform="translate(806.51 -870.82)" fill-rule="evenodd">
         <path
            d="m-453.86 1062.4c-1.65-0.077-2.6991 0.9221-2.1003 2.5786 0.1502 2.82 0.2219 5.6434 0.2704 8.4667-3.4419 0.5194-6.8821 1.065-10.346 1.4215-2.0616-1.6378-3.8726-3.564-5.92-5.2187-1.3936 1.005-2.674 2.4923-1.3596 4.1136 1.3354 3.3463 1.9911 6.8979 2.7566 10.403-5.4709 0.2407-10.945 0.4089-16.418 0.5822 3.6112 2.0584 7.1682 4.2108 10.796 6.2396 2.0858 0.074 4.8276-0.7856 6.5005-0.2711 0.406 2.3874-0.6731 4.6608-1.948 6.6082 2.5491 2.3703 5.6678 4.0454 8.9388 5.1882 0.2177-1.3099-0.8226-3.7343 0.218-4.291 2.4114-0.1183 4.8228-0.2366 7.2342-0.355-0.09 3.1611 0.5149 6.4344-0.4163 9.5097-1.7113 1.7673 0.3668 3.3331 1.2544 4.9714 1.3352 2.2264 3.3219 3.8891 5.2782 5.5392 0.9477 0.6023 0.1654-2.658 0.4478-3.524 0.055-5.5905 0.044-11.181 0-16.772 2.451-0.084 4.9019-0.1684 7.3529-0.2528-0.249 1.8708 3.4116 4.4673 3.9762 1.7991 1.1707-3.9058 2.2234-7.8636 2.839-11.899 4.5973-0.4202 9.1943-0.8448 13.791-1.2693-4.1893-2.1508-8.3705-4.3366-12.738-6.1095-0.033-1.9068 1.2661-4.5049 0.4125-5.9669-2.1773-1.0798-4.3157-2.2388-6.5245-3.2543-2.7239 1.0523-5.6427 1.4279-8.528 1.7392-0.2667-1.7948 1.5759-3.8183 0.237-5.3241-1.5476-2.0753-3.7904-3.4014-6.0033-4.6523zm13.77 15.163c-0.3389 1.2206 0.6226 3.6971-0.959 3.8775-2.5099 0.4105-5.0342 0.7266-7.5615 1.0087 0.4155-1.3613-0.7636-4.2558 0.8929-4.4466 2.5436-0.193 5.0873-0.386 7.631-0.5791-0.1456-0.098 0.05 0.1453 0 0.1395zm-15.494 1.2839c-0.3712 1.3466 0.943 4.2105-0.7494 4.3682-2.634 0.236-5.2688 0.4673-7.9079 0.6393 0.2667-1.3318-1.2665-4.1567 0.4678-4.2874 2.7292-0.2861 5.4584-0.572 8.1876-0.8581v0.138zm14.29 12.14c-2.4755-0.016-4.9364 0.3371-7.4115 0.3253-0.077-1.7321-0.3043-3.6611 2.0236-3.1157 1.897-0.1368 3.7946-0.2639 5.6914-0.404-0.1264 1.0622-0.1857 2.1318-0.3035 3.1944zm-14.131-1.8828c-0.01 1.6164 0.6644 3.8197-1.6868 3.3938-2.076 0.2498-4.1526 0.4945-6.232 0.7151-0.1014-1.6675-1.0237-4.0032 1.4905-3.5345 2.1423-0.2361 4.2837-0.4805 6.4264-0.7129v0.1385z"
            fill="#ff2d00" />
         <path
            d="m-453.83 1324c1.65 0.077 2.6993-0.922 2.1004-2.5786-0.1502-2.82-0.2219-5.6434-0.2704-8.4667 3.4419-0.5194 6.882-1.065 10.346-1.4215 2.0618 1.6378 3.8727 3.5641 5.9201 5.2187 1.3936-1.005 2.674-2.4922 1.3597-4.1136-1.3355-3.3463-1.9913-6.8979-2.7567-10.403 5.4709-0.2406 10.945-0.4089 16.418-0.5822-3.6112-2.0584-7.1682-4.2108-10.796-6.2396-2.0857-0.074-4.8275 0.7856-6.5004 0.2711-0.4061-2.3873 0.6731-4.6607 1.9479-6.6081-2.549-2.3704-5.6677-4.0454-8.9387-5.1883-0.2176 1.31 0.8226 3.7343-0.2181 4.2911-2.4113 0.1183-4.8227 0.2366-7.2341 0.355 0.09-3.1612-0.5148-6.4345 0.4162-9.5098 1.7114-1.7673-0.3666-3.3331-1.2543-4.9714-1.4325-2.3737-3.587-4.1252-5.6772-5.8853-0.1068 6.8801-0.1037 13.762-0.047 20.642-2.451 0.084-4.9019 0.1684-7.3529 0.2527 0.249-1.8708-3.4116-4.4672-3.9762-1.7991-1.1707 3.9059-2.2234 7.8636-2.8389 11.899-4.5974 0.4202-9.1943 0.8448-13.791 1.2694 4.1894 2.1507 8.3705 4.3366 12.738 6.1095 0.033 1.9068-1.266 4.505-0.4124 5.9669 2.1773 1.0799 4.3156 2.2388 6.5244 3.2544 2.7239-1.0523 5.6428-1.4279 8.5281-1.7393 0.2667 1.7949-1.576 3.8183-0.2371 5.3241 1.5476 2.0753 3.7905 3.4015 6.0033 4.6523zm-13.77-15.163c0.3394-1.2206-0.6221-3.6971 0.959-3.8775 2.51-0.4105 5.0343-0.7266 7.5615-1.0087-0.4143 1.3613 0.7633 4.2558-0.8928 4.4466-2.5437 0.193-5.0873 0.386-7.631 0.5792v-0.1396zm15.494-1.2839c0.3712-1.3466-0.943-4.2106 0.7494-4.3682 2.634-0.236 5.2687-0.4674 7.9078-0.6394-0.2665 1.3319 1.2666 4.1568-0.4677 4.2876-2.7292 0.286-5.4584 0.5719-8.1876 0.8581v-0.1381zm-14.29-12.14c2.4755 0.016 4.9364-0.3372 7.4114-0.3254 0.077 1.7322 0.3043 3.6611-2.0235 3.1157-1.897 0.1369-3.7947 0.264-5.6915 0.4041 0.1265-1.0622 0.1858-2.1319 0.3036-3.1944zm14.131 1.8827c0.01-1.6164-0.6643-3.8197 1.6868-3.3938 2.076-0.2497 4.1527-0.4945 6.232-0.715 0.1015 1.6675 1.0238 4.0031-1.4903 3.5345-2.1423 0.2361-4.2838 0.4805-6.4265 0.7129v-0.1386z"
            fill="#ff2d00" />
         <path
            d="m-446.54 1162.2c-3.9877 2.9219-8.9822 3.7648-13.625 5.127-0.089-1.1899-1.7302-3.1379-2.4219-1.9953 0.5501 8.0167 1.0733 16.08 0.5205 24.108-1.0201 1.8638-0.3822 3.7637 1.0755 5.2038 0.9583 1.5849 0.7901 0.073 0.8124-0.8601-0.3745-2.4885 3.4808-1.6078 5.0501-2.5458 2.7929-0.6903 5.5863-1.3788 8.3793-2.0691 0.1888 0.8978-0.1329 3.0879 1.2944 2.4576 0.547-2.0629 0.3877-4.7221 0.6026-7.0108 0.3164-6.6515 0.389-13.312 0.6814-19.964-0.8246-0.7812-1.5944-1.6223-2.3692-2.4515zm-0.035 3.3672c0.283 6.0115-0.076 12.025-0.207 18.035-2.204 0.087-3.5624-1.9606-5.0447-3.2718-1.2573-1.0403-2.1688-1.8797-0.022-2.1983 1.4152-0.6395 3.8047-1.1644 4.511-1.8874-1.3328-1.0099-2.6184-2.1303-4.0305-0.62-0.9653 0.4316-2.7908 1.7746-1.9668-0.2544-0.5746-3.0849 3.4194-2.7157 5.3626-3.9217 1.6395-0.3308-1.4043-1.5652-1.9302-1.9296-0.9978 0.3926-2.738 2.2416-3.0088 0.9123-0.7306-0.7682-2.7825-1.8107-2.6475-2.399 2.9931-0.8217 5.9972-1.6447 8.9835-2.4653zm-10.721 2.9414c0.084 1.315 2.6768 2.4503 2.1493 3.4548-1.4694 0.3421-3.6619 1.462-4.7393 1.1466 0.3657-1.4732-0.8842-4.2092 1.328-4.2543 0.4206-0.1158 0.8416-0.231 1.262-0.3471zm-2.5996 5.2422c1.2343 1.5739 2.7278 1.4833 4.3496 0.5312 0.2418 1.7181 0.1594 3.7194-2.0371 3.6711-1.0571 0.1845-2.9237 1.3825-2.3593-0.5546 0.014-1.2157 0.031-2.4332 0.047-3.6477zm-0.062 5.0781c1.0635 0.7719 2.0359 2.1526 3.3848 1.0703-0.73 2.3725-2.009 4.5335-3.4747 6.5216 0.033-2.5306 0.063-5.0614 0.09-7.5919zm5.4922 1.3399c1.8857 1.8907 3.7484 3.8043 5.5937 5.7343 1.019-0.1198 2.5696-1.0015 2.0645 0.7286-1.0824-1.1133-2.742 1.0965-4.2403 1.1872-2.9884 1.034-6.1159 1.6167-9.0742 2.7444-0.5101-1.9163 1.1478-2.7888 2.1545-4.1365 1.4256-1.9152 2.7195-3.9958 3.5018-6.258z"
            fill="#ff2d00" />
         <path
            d="m-452.72 1194.1c-1.229 1.7087 0.2626 3.2002 1.0107 4.713 0.5607 1.0915 1.7132 2.4532-0.2058 2.6983-1.5632 0.7017-3.2182 1.1559-4.8677 1.6023 0.749 0.6433 1.7051 2.4714 0.2275 0.9161-1.4378-0.2987-3.5249 2.661-4.7306 2.5083-0.1565-1.0947-0.6988-3.2253-1.667-1.3488-0.4143 1.4822 0.5023 3.4554 0.4245 5.173 0.2296 3.5609 0.3721 7.1504 0.1622 10.71-0.523 1.7544 0.799 3.343 1.886 4.585 0.2386-1.2058-0.5651-3.1147 0.3397-3.852 0.8921-0.3215 1.7842-0.6429 2.6763-0.9644-0.1771 1.558 1.4187 2.4834-0.054 3.8147-0.6482 1.56 2.2501 0.5268 2.2532-0.7205 2.0895-3.2556 3.7021-6.8147 4.7617-10.536 1.8321 3.3391 3.2112 6.9835 5.6798 9.9316 1.2889-0.7138 3.5232-0.9096 4.2872-1.7514-0.8704-2.1436-4.0555-1.3068-4.8606-3.7588-1.5991-2.0943-2.8879-4.4009-4.413-6.5465 1.9302-0.9039 3.9204-1.6711 5.9043-2.4473-0.947-0.8105-1.8275-3.1663-3.0428-1.5448 0.5663-1.6711 1.7886-3.3035 0.7645-5.0448-0.4884-0.896 1.0079-0.8423 1.542-1.2489 1.3106-0.4218-1.2934-1.7983-1.5761-2.5014-0.6688 0.4272-2.913 2.7541-2.3886 1.1192-1.0682-2.0425-2.7155-3.7236-4.1134-5.5059zm4.832 8.2383c-0.1239 2.1744-0.3656 4.7523-1.5918 6.4844 0.4524-1.9379 0.5399-3.9661 0.2698-5.9376 0.4407-0.1823 0.8813-0.3645 1.322-0.5468zm-3.4297 1.4219c0.01 1.4092 0.1348 4.558-0.4416 4.9303-0.7272-1.2808-1.4543-2.5616-2.1814-3.8424 0.8743-0.3626 1.7487-0.7253 2.623-1.0879zm-3.4082 2.875c0.3113 1.5094 2.1405 4.1168-0.4461 4.1452-1.0156-0.01-0.2426-2.7616-0.264-3.7488 0.2367-0.1321 0.4734-0.2643 0.7101-0.3964zm-2.623 0.7902c-0.1799 1.6768 0.7781 3.9876-1.3532 4.6134-0.948 0.4785-2.4999 2.2514-2.05 0.084-0.247-1.3149-0.113-2.4452 1.1686-3.0168 0.7449-0.5603 1.4898-1.1206 2.2346-1.6809zm1.6308 4.8485c0.4527 1.383 1.3842 0.9881 2.345 0.4812 1.7826-1.2051 0.5919 1.2192 0.3956 2.2255-0.734 2.4525-1.8709 4.7588-3.0921 7.0004 0.2398-3.2303 0.2421-6.4713 0.3515-9.7071zm-1.6543 1.8652c-0.3854 1.414 0.7099 3.7048-0.8705 4.3816-1.0392 0.3541-2.8369 2.0471-2.3721-0.055 0.2209-1.0437-0.7005-2.779 0.7202-3.0904 0.8408-0.412 1.6816-0.824 2.5224-1.2359z"
            fill="#ff2d00" />
         <path d="m-446.56 1202.2c-0.207 0.1129-0.1583 0.049 0 0z" fill="#ff2d00" />
         <path d="m-451.22 1212.2c0.015 0.2647-0.1568 0.3661 0 0z" fill="#ff2d00" />
         <path d="m-446.56 1202.2c-0.207 0.1129-0.1583 0.049 0 0z" fill="#ff2d00" />
      </g>
      <path d="m315.04 181.98v280.77h75.266v-280.77zm2.9453 2.9453h69.375v274.88h-69.375z" fill="#ff2d00" />
   </g>
</svg>