<?xml version="1.0" encoding="UTF-8"?>
<svg width="21.242mm" height="79.239mm" version="1.1" viewBox="0 0 75.266 280.77" xmlns="http://www.w3.org/2000/svg"
   xmlns:cc="http://creativecommons.org/ns#" xmlns:dc="http://purl.org/dc/elements/1.1/"
   xmlns:rdf="http://www.w3.org/1999/02/22-rdf-syntax-ns#">
   <g transform="translate(-315.04 -181.98)" shape-rendering="auto">
      <g transform="translate(1028.7 -591.18)" fill-rule="evenodd">
         <path
            d="m-696.72 787.46c-1.1247 3e-3 -2.2493 5e-3 -3.374 8e-3 2.632 2.4679 5.2641 4.9358 7.8961 7.4037 1.2958-0.0773 4.0347-1.2022 4.38-0.58959-3.6987 6.691-7.8043 13.411-13.945 18.154-0.24938 0.90221 2.2138 1.8081 3.0921 2.6327 1.3521 1.3467 2.6072-0.69912 3.8112-1.3374 2.7328-2.1264 5.1257-4.662 7.2498-7.3897 1.3298 0.31611 3.7419-0.71699 4.3443-0.012-1.2945 3.9605-3.9396 7.3178-6.6412 10.424-1.3634 0.97727-1.557 1.8264 0.22963 2.2186 1.6217 0.74374 3.1557 1.6317 4.5527-0.0431 4.483-3.5095 7.1636-8.732 9.4521-13.826 1.338-0.0709 4.018-0.89569 4.5489-0.0534-1.3627 7.0898-6.4846 12.771-12.287 16.735-1.1734 0.7857-2.92 1.4448-1.4964 2.9722 0.90534 1.6718 2.6662 3.9988 4.487 1.999 2.5248-1.479 4.8556-3.2815 6.9568-5.3162 1.9721 4.8032 3.0172 9.9096 4.3618 14.907 3.8957-2.75 6.4291-6.9527 8.8806-10.945 4.0924-7.182 7.5989-14.79 9.6293-22.826 0.10461-1.5503 1.4098-3.8804-0.40922-4.7656-1.9483-1.449-3.8991-2.8946-5.8503-4.3395-1.6411 1.1615-3.1415 2.6325-5.255 2.77-6.724 1.4884-13.562 2.4174-20.432 2.8814 1.4752-2.9054 4.0519-5.4376 4.3178-8.8273-0.69423-2.5645-1.3949-5.1287-2.2137-7.6568-4.2289 4.062-10.402 4.8928-16.022 4.8244l-0.26398-3e-3v1.6e-4zm31.278 35.824c-1.3039-2.2745-2.4097-4.6549-3.4719-7.0496 2.6534-3.5488 4.8263-7.4616 6.3894-11.61-1.487-1.4354 2.5816-1.2139 2.943-0.99033 0.01 6.159-1.6778 12.312-4.6255 17.706-0.38104 0.66649-0.79081 1.3169-1.235 1.9432z"
            fill="#ff2d00" />
         <path
            d="m-655.42 1039.6c1.1246 0 2.2493 0 3.3739-0.01-2.632-2.4679-5.2641-4.9358-7.8961-7.4037-1.2958 0.077-4.0347 1.2022-4.38 0.5896 3.6987-6.6911 7.8043-13.411 13.945-18.154 0.24938-0.9022-2.2138-1.8081-3.092-2.6328-1.352-1.3467-2.6072 0.6992-3.8112 1.3375-2.7328 2.1264-5.1257 4.6619-7.2497 7.3897-1.3297-0.3161-3.7419 0.717-4.3443 0.012 1.2945-3.9605 3.9395-7.3178 6.6412-10.424 1.3633-0.9772 1.557-1.8264-0.2296-2.2186-1.6217-0.7437-3.1557-1.6317-4.5528 0.043-4.483 3.5095-7.1636 8.732-9.4521 13.826-1.3379 0.071-4.0179 0.8957-4.5488 0.053 1.3627-7.0898 6.4846-12.771 12.287-16.735 1.1734-0.7857 2.92-1.4448 1.4965-2.9721-0.90534-1.6718-2.6663-3.9988-4.4871-1.9991-2.5248 1.4791-4.8556 3.2816-6.9568 5.3162-1.972-4.8032-3.0172-9.9096-4.3618-14.907-3.8957 2.75-6.4291 6.9527-8.8806 10.945-4.0924 7.182-7.5989 14.79-9.6293 22.826-0.10461 1.5503-1.4099 3.8804 0.40919 4.7656 1.9483 1.449 3.8991 2.8946 5.8503 4.3395 1.6411-1.1615 3.1415-2.6325 5.255-2.77 6.724-1.4885 13.562-2.4174 20.432-2.8814-1.4752 2.9054-4.0519 5.4376-4.3178 8.8273 0.69422 2.5646 1.3949 5.1287 2.2137 7.6569 4.2289-4.062 10.402-4.8928 16.022-4.8244h0.26398v-2e-4zm-31.278-35.824c1.3039 2.2744 2.4097 4.6549 3.4719 7.0496-2.6534 3.5488-4.8262 7.4617-6.3893 11.61 1.1572 1.0707-0.41174 0.9556-1.1776 1.0553-0.58502-0.1155-1.9576 0.6731-1.7714-0.329 0.0708-6.2878 1.8204-12.578 4.9705-18.018 0.28267-0.4659 0.5806-0.9227 0.89592-1.3672z"
            fill="#ff2d00" />
         <path
            d="m-668.77 897.75c-1.9154 0.33632-2.2817 1.638-2.1555 3.383-0.4878 4.7832-2.0074 9.4898-4.6551 13.521-2.237-1.5156-4.474-3.0312-6.7109-4.5469-0.47721 0.69662-0.95442 1.3932-1.4316 2.0898 2.1137 1.7058 4.1946 3.4528 6.2227 5.2598-4.3352 5.2563-9.4383 9.8901-15.189 13.555 2.1558 1.1977 4.2998 0.75882 6.1904-0.70093 4.5286-2.666 8.2475-6.4684 11.612-10.457 2.1709 2.0969 4.2172 4.319 6.1816 6.6094 0.27022-2.0548 1.5274-4.4943 1.2192-6.3249-1.7046-1.1547-3.4092-2.3095-5.1137-3.4642 2.5134-4.5828 4.7136-9.3743 6.1016-14.426-0.80922-1.4726-1.5229-2.9946-2.2714-4.4982z"
            fill="#ff2d00" />
      </g>
      <path d="m315.04 181.98v280.77h75.266v-280.77zm2.9453 2.9453h69.375v274.88h-69.375z" fill="#ff2d00" />
   </g>
</svg>