<?xml version="1.0" encoding="UTF-8"?>
<svg width="21.242mm" height="79.239mm" version="1.1" viewBox="0 0 75.265756 280.76861"
   xmlns="http://www.w3.org/2000/svg" xmlns:cc="http://creativecommons.org/ns#"
   xmlns:dc="http://purl.org/dc/elements/1.1/" xmlns:rdf="http://www.w3.org/1999/02/22-rdf-syntax-ns#">
   <g transform="translate(-315.04 -181.98)" shape-rendering="auto">
      <g transform="translate(881.26 -591.2)" fill-rule="evenodd">
         <path
            d="m-518.81 783.1c-10.843 3.0742-22.15 3.8444-33.356 4.3382 0.51022 2.1569 1.475 4.2098 2.9209 5.9 1.8471 0.17294 4.4437-0.5191 5.7882-0.13743-1.6356 9.8742-5.6047 19.509-12.269 27.063 1.6776 0.22585 3.7445 2.1183 5.1139 1.2893 3.299-3.1664 6.1002-6.8598 8.1849-10.933 1.6975 0.0606 4.5684-0.88571 5.5171-0.18261-1.3643 4.095-4.2453 7.522-7.3978 10.39-1.2618 0.81695 1.2226 1.8841 1.848 2.6099 4.7634-1.6011 8.3229-5.4976 11.182-9.48 1.1902-1.4382 1.9128-3.4922 3.1398-4.6991 1.1366 0.10089 3.6247-0.7774 3.85-0.0165-2.9176 6.8437-7.74 12.901-13.997 16.972 1.1229 1.0791 1.7101 3.4471 3.3121 3.5254 3.199-1.4741 5.8804-3.8508 8.6188-6.0262 1.6041 4.9019 3.1978 9.8073 4.7449 14.727 4.1229-2.3206 7.7575-5.5725 10.14-9.6909 4.7509-7.7906 5.5902-17.214 10.025-25.151-2.4595-1.5678-4.858-3.2329-7.3736-4.7116-1.9809 0.18145-2.7667 2.753-4.9617 2.4074-7.5043 0.98209-14.939 3.0283-22.561 2.7211-1.4328-1.6749 1.5003-1.8544 2.5948-2.0899 4.0044-0.8308 8.0291-1.5589 12.045-2.3322-2.366-2.0276-4.994-3.7133-7.6088-5.396-2.4998 0.83332-5.0193 1.6575-7.628 2.0754 0.61137-1.2809-0.0992-3.8677 1.3294-4.2317 9.0772-1.0591 18.154-2.1184 27.232-3.1775-3.4678-1.9012-6.8708-4.0351-10.385-5.7802l-0.0479 0.0163zm0.7126 44.556c-1.6899-2.4318-3.1062-5.0389-4.4632-7.6668 3.1169-3.3805 5.5294-7.3554 7.4057-11.533 0.93275-0.94822 3.8011-1.268 4.242-0.38337-0.6238 6.1829-2.2931 12.412-5.6947 17.668-0.45473 0.66946-0.94859 1.3131-1.4898 1.9151z"
            fill="#ff2d00" />
         <path
            d="m-538.36 1044c10.843-3.0743 22.15-3.8445 33.356-4.3383-0.5103-2.1569-1.4751-4.2097-2.921-5.9-1.8471-0.173-4.4437 0.5191-5.7882 0.1374 1.6357-9.8742 5.6047-19.509 12.269-27.063-1.6776-0.2258-3.7445-2.1183-5.1139-1.2893-3.299 3.1664-6.1002 6.8598-8.1849 10.933-1.6976-0.061-4.5685 0.8857-5.5172 0.1826 1.3644-4.095 4.2453-7.522 7.3979-10.39 1.2619-0.8169-1.2225-1.8841-1.848-2.6099-4.7634 1.6011-8.323 5.4976-11.182 9.48-1.1902 1.4382-1.9128 3.4921-3.1398 4.6991-1.1366-0.1008-3.6247 0.7774-3.85 0.017 2.9176-6.8437 7.74-12.901 13.997-16.972-1.1229-1.0791-1.7101-3.4471-3.312-3.5254-3.199 1.4741-5.8804 3.8508-8.6188 6.0262-1.6041-4.9019-3.1978-9.8073-4.7449-14.728-4.1229 2.3206-7.7574 5.5725-10.141 9.6909-4.7508 7.7906-5.59 17.215-10.025 25.151 2.4595 1.5678 4.8579 3.2329 7.3735 4.7116 1.9809-0.1814 2.7667-2.753 4.9618-2.4073 7.5043-0.9821 14.939-3.0284 22.561-2.7211 1.4326 1.6749-1.5004 1.8544-2.5949 2.0898-4.0044 0.8308-8.029 1.5589-12.045 2.3322 2.366 2.0276 4.994 3.7134 7.6088 5.3961 2.4998-0.8334 5.0192-1.6575 7.6279-2.0755-0.61137 1.281 0.0993 3.8677-1.3293 4.2318-9.0772 1.0591-18.154 2.1183-27.232 3.1775 3.4678 1.9011 6.8708 4.0351 10.385 5.7802l0.0478-0.016zm-0.7126-44.556c1.6899 2.4318 3.1062 5.0389 4.4633 7.6668-3.1169 3.3805-5.5294 7.3554-7.4057 11.533-0.93275 0.9483-3.8011 1.268-4.242 0.3834 0.62385-6.1829 2.2931-12.412 5.6946-17.668 0.45473-0.6694 0.94859-1.3131 1.4898-1.9151z"
            fill="#ff2d00" />
         <path transform="matrix(.038262 -.0046955 0 .044457 -519.18 849.54)"
            d="m-40.992 1336.5c-131.81 36.78-269.79 43.101-405.52 54.313-56.957 3.7417-113.97 6.6408-171.01 8.6346 29.666 23.886 41.1 85.29 78.963 89.195 215.65-22.247 431.31-44.494 646.96-66.74-49.902-28.279-99.051-57.882-149.38-85.402z"
            fill="#ff2d00" />
      </g>
      <path d="m315.04 181.98v280.77h75.266v-280.77zm2.9453 2.9453h69.375v274.88h-69.375z" fill="#ff2d00" />
   </g>
</svg>