<?xml version="1.0" encoding="UTF-8"?>
<svg width="21.242mm" height="79.239mm" version="1.1" viewBox="0 0 75.266 280.77" xmlns="http://www.w3.org/2000/svg"
   xmlns:cc="http://creativecommons.org/ns#" xmlns:dc="http://purl.org/dc/elements/1.1/"
   xmlns:rdf="http://www.w3.org/1999/02/22-rdf-syntax-ns#">
   <g transform="translate(-315.04 -181.98)" shape-rendering="auto">
      <g transform="translate(733.95 -310.99)" fill-rule="evenodd">
         <path
            d="m-368.44 506.53c-1.4314 1.5709-3.395 1.8673-5.525 2.1678-6.6628 1.1626-13.428 1.5385-20.172 1.8876-1.1585 0.99835-3.3153 2.2645-1.0793 3.4242 1.4278 0.77911 2.4224 3.0602 4.1904 2.7679 2.4852-0.24816 4.9705-0.49633 7.4557-0.7445-0.1053 2.6902-0.6533 5.3443-1.401 7.9244-5.098 0.34046-10.205 0.50848-15.311 0.68031l7.5951 6.0812c1.6305 0.0814 4.4569-0.82222 5.3216-0.11002-0.9698 3.0304-2.9861 6.2566-6.2589 7.081-5.6091 0.24346-11.23 0.40961-16.84 0.71845 2.5678 2.2308 5.1289 4.4691 7.6942 6.7027 17.413-2.1558 34.99-2.6886 52.374-5.1074-3.033-2.2423-6.0484-4.5084-9.0804-6.7522-3.0801 1.2452-6.2766 2.2055-9.5375 2.8439 1.5284-2.379 2.5826-5.0212 3.5163-7.679 1.5115-0.42126 4.1316 0.2746 4.9081-0.92117-0.019-1.5474 1.1911-3.733-0.9272-4.3099-2.4515-0.95359-1.4544-3.5456-1.3032-5.5408 0.2583-2.2934 0.6995-4.601 1.7043-6.696-1.775-2.0519-4.1-3.5048-6.299-5.0517-0.3419 0.21106-0.6837 0.42212-1.0256 0.63323zm-1.0639 8.235c-0.1722 2.5439-0.4659 5.0808-0.9138 7.5913-2.6913 0.43008-5.3893 0.82452-8.0998 1.1134 0.8656-2.5676 0.7003-5.4946 2.1296-7.8524 2.0024-0.80921 4.9214-0.77937 6.8841-0.85231zm-2.7921 14.402c-1.1854 2.7273-2.551 5.4229-4.5066 7.687-2.5706 0.58097-5.2226 0.47314-7.8385 0.5789 1.802-2.3323 3.1951-4.9708 4.1714-7.749 2.7504-0.23157 5.5007-0.46316 8.251-0.6948l-0.077 0.17792z"
            fill="#000000" />
         <path
            d="m-394.12 760.18c1.4314-1.5709 3.3949-1.8673 5.5249-2.1677 6.6629-1.1627 13.428-1.5385 20.172-1.8876 1.1585-0.99835 3.3152-2.2645 1.0793-3.4242-1.4279-0.77911-2.4225-3.0602-4.1905-2.7679-2.4852 0.24817-4.9704 0.49634-7.4557 0.74451 0.1055-2.6902 0.6533-5.3443 1.4011-7.9244 5.098-0.34046 10.205-0.50848 15.311-0.68031-2.5317-2.027-5.0635-4.0541-7.5952-6.0812-1.6304-0.0814-4.4568 0.82223-5.3215 0.11002 0.9698-3.0304 2.9861-6.2566 6.2588-7.081 5.6091-0.24346 11.23-0.40961 16.84-0.71845-2.5677-2.2308-5.1289-4.4691-7.6942-6.7027-17.413 2.1558-34.99 2.6886-52.374 5.1074 3.0331 2.2423 6.0484 4.5084 9.0804 6.7522 3.0802-1.2452 6.2767-2.2055 9.5376-2.8439-1.5285 2.379-2.5827 5.0211-3.5164 7.679-1.5115 0.42126-4.1316-0.27459-4.9081 0.92118 0.019 1.5474-1.191 3.733 0.9272 4.3099 2.4515 0.95358 1.4544 3.5456 1.3032 5.5408-0.2582 2.2934-0.6995 4.601-1.7043 6.696 1.7751 2.0519 4.1 3.5048 6.2991 5.0517 0.3419-0.2111 0.6838-0.42218 1.0256-0.63322zm1.0638-8.235c0.1722-2.5439 0.4659-5.0808 0.9138-7.5913 2.6913-0.43006 5.3893-0.82451 8.0998-1.1134-0.8656 2.5676-0.7003 5.4946-2.1295 7.8524-2.0024 0.80921-4.9214 0.77937-6.8841 0.85231zm2.7921-14.402c1.1854-2.7273 2.5511-5.4229 4.5066-7.687 2.5707-0.58096 5.2226-0.47314 7.8385-0.5789-1.8019 2.3323-3.195 4.9708-4.1714 7.749-2.7503 0.23157-5.5007 0.46318-8.251 0.6948l0.077-0.17792z"
            fill="#000000" />
         <path transform="matrix(.038262 -.0046955 0 .044457 -289.09 560.58)"
            d="m-2323.2 1013c5.7476 207.06 7.4098 414.32 9.8863 621.36-23.707 49.008 0.5886 92.72 34.076 130.97 18.839 21.391 59.347 79.592 49.462 20.527 2.71-217.84 3.6129-436.25 15.587-653.53 18.919-23.281-25.87-31.909-34.148-49.79-25.287-22.82-49.936-46.333-74.864-69.541z"
            fill="#000000" />
         <path transform="matrix(.038262 -.0046955 0 .044457 -289.09 560.58)"
            d="m-2580.6 1078c31.54 83.992 37.832 175.17 41.135 264.09-2.3194 49.029 3.3501 102.45-21.258 146.98 32.868 27.694 78.551 88.132 103.03 95.572 4.1493-153.57 0.7509-307.2 2.2489-460.79-41.646-15.477-83.376-30.729-125.15-45.852z"
            fill="#000000" />
      </g>
      <path d="m315.04 181.98v280.77h75.266v-280.77zm2.9453 2.9453h69.375v274.88h-69.375z" fill="#000000" />
   </g>
</svg>