<?xml version="1.0" encoding="UTF-8"?>
<svg width="21.242mm" height="79.239mm" version="1.1" viewBox="0 0 75.265756 280.76861"
   xmlns="http://www.w3.org/2000/svg" xmlns:cc="http://creativecommons.org/ns#"
   xmlns:dc="http://purl.org/dc/elements/1.1/" xmlns:rdf="http://www.w3.org/1999/02/22-rdf-syntax-ns#">
   <g transform="translate(-315.04 -181.98)" shape-rendering="auto">
      <g transform="translate(584.19 -590.66)" fill-rule="evenodd">
         <path
            d="m-235.1 781.23c-1.0789 1.0999-4.0518 1.468-3.7155 3.1158 0.624 2.3476 0.9023 4.7786 0.9385 7.2045-2.8606 0.24033-5.7228 0.46202-8.5861 0.66894-1.882-0.69704-3.5658-2.7319-5.6458-2.2991-1.1067 0.45371-3.7863 1.2898-3.5163 2.3276 3.0949 3.1763 5.0091 7.5213 5.0998 11.969-0.7591 0.81448-2.3163 2.2767-2.019 3.1494 2.5375 1.5816 5.2522 2.9473 8.235 3.419 0.849 0.22292 2.3988 0.17145 1.0372 1.2802-3.3935 5.1706-8.4519 8.9423-13.799 11.905-0.9133 0.71633-3.4961 1.5658-3.2957 2.1375 2.2992 0.46777 4.6371 2.1262 6.9925 1.2161 6.6122-2.1696 11.931-7.0579 16.361-12.265 1.0735-0.78969 1.8958-3.9764 3.0543-1.7838 4.2416 4.6285 8.2735 9.4568 11.939 14.556 6.945-1.0099 13.967-1.2824 20.972-1.5358 0.6617-2.4636-2.4485-2.2803-3.9041-3.2574-8.6028-3.7494-17.169-7.9096-24.507-13.837-0.6765-0.5539-1.7883-1.313-0.2138-1.075 2.0858 0.0433 4.2652-0.49533 6.2082 0.51446 1.6182 1.0466 3.7599 1.0431 3.8417-1.3391 1.2099-4.9217 2.0429-9.9353 2.432-14.99-3.1886-1.3995-6.4403-2.654-9.7338-3.7842 0 0.57174 0.41 1.4379 0.1763 1.8383-1.6067 0.21129-3.8753 1.0719-3.009-1.3457 0.5194-1.7513-0.3839-2.9493-1.716-3.993-1.2219-1.2533-2.4107-2.5382-3.6271-3.7967zm10.196 15.247c-0.5807 1.6157 0.1663 4.7369-1.755 5.1102-1.3661-0.15627-4.8692 1.4802-3.9985-0.91498 0.5869-1.1314-0.5724-3.932 1.0831-3.9114 1.5568-0.0946 3.1136-0.18924 4.6704-0.28386zm-13.214 0.80287c-0.4535 1.6467 0.099 4.5813-1.3562 5.3262-1.6262-0.1991-4.6399 1.2962-4.243-1.3927 0.2461-1.0942-1.4755-3.7999 0.3502-3.6144 1.7496-0.10636 3.4993-0.21272 5.249-0.31908zm-2.9741 11.161c-0.423 0.7622-1.5495 3.3802-1.6396 1.0765-0.5231-1.5396 0.6416-0.90954 1.6396-1.0765z"
            fill="#000000" />
         <path
            d="m-227.93 1044.8c1.079-1.1 4.0519-1.468 3.7156-3.1159-0.6241-2.3475-0.9024-4.7786-0.9386-7.2044 2.8607-0.2403 5.7229-0.462 8.5861-0.669 1.8821 0.6971 3.5659 2.7319 5.6459 2.2991 1.1068-0.4537 3.7863-1.2898 3.5163-2.3276-3.0949-3.1763-5.0091-7.5212-5.0998-11.969 0.7591-0.8145 2.3163-2.2767 2.0189-3.1494-2.5375-1.5816-5.2521-2.9473-8.2349-3.419-0.849-0.2229-2.3988-0.1714-1.0372-1.2802 3.3934-5.1706 8.4519-8.9423 13.799-11.905 0.9134-0.7163 3.4961-1.5657 3.2958-2.1374-2.2992-0.46778-4.6371-2.1262-6.9925-1.2161-6.6122 2.1696-11.931 7.0579-16.361 12.265-1.0735 0.7897-1.8959 3.9764-3.0544 1.7839-4.2416-4.6285-8.2734-9.4568-11.939-14.556-6.945 1.0099-13.967 1.2824-20.972 1.5358-0.6617 2.4636 2.4486 2.2803 3.9041 3.2574 8.6029 3.7495 17.169 7.9097 24.507 13.837 0.6765 0.5539 1.7884 1.313 0.2139 1.0749-2.0858-0.043-4.2653 0.4954-6.2083-0.5144-1.6181-1.0466-3.7599-1.0431-3.8417 1.3391-1.2098 4.9216-2.0428 9.9353-2.4319 14.99 3.1886 1.3995 6.4404 2.654 9.7338 3.7842 0-0.5717-0.4098-1.4378-0.1764-1.8382 1.6067-0.2112 3.8755-1.0719 3.0091 1.3457-0.5194 1.7513 0.3838 2.9494 1.716 3.993 1.2218 1.2532 2.4107 2.5383 3.627 3.7967zm-10.196-15.247c0.5807-1.6157-0.1663-4.7369 1.7549-5.1102 1.3662 0.1563 4.8692-1.4802 3.9986 0.915-0.5869 1.1314 0.5725 3.932-1.0831 3.9114-1.5568 0.095-3.1136 0.1892-4.6704 0.2838zm13.214-0.8028c0.4536-1.6467-0.099-4.5814 1.3562-5.3262 1.6262 0.1991 4.6399-1.2962 4.243 1.3927-0.246 1.0942 1.4755 3.7999-0.3502 3.6144-1.7496 0.1063-3.4993 0.2127-5.249 0.3191zm2.9742-11.161c0.423-0.7622 1.5494-3.3803 1.6396-1.0765 0.523 1.5396-0.6416 0.9096-1.6396 1.0765z"
            fill="#000000" />
         <path
            d="m-227.73 896.84c0.1024 4.3353 0.1596 8.6716 0.2051 13.008-1.6072 0.29441-3.9695 1.3704-5.1335 0.95117-0.01-2.7676-0.014-5.5352 0.01-8.3027-1.4325-0.24583-4.0423-1.6288-4.7539-1.1436 1.0386 3.3792 1.2541 6.94 1.3125 10.454-3.1419 0.58958-6.2905 1.1447-9.4492 1.6367 1.6367 1.0794 3.2734 2.1588 4.9101 3.2383 1.4903-0.36133 2.9805-0.72265 4.4707-1.084 0.176 1.7945-1.4259 3.6618 0.6991 4.7562 0.8459 0.68516 2.1828 2.6422 2.7246 2.5644 0.056-2.7224 0.074-5.4454 0.074-8.1682 1.7298-0.41992 3.4596-0.83984 5.1895-1.2598 0.1149 4.3832 0.34 8.8171-0.4024 13.16 0.8426 2.0992 2.2289 3.9493 3.8521 5.5098 0.099-6.5049 0.01-13.01 0.033-19.516 2.8991-0.70312 5.7982-1.4062 8.6973-2.1094-1.7767-0.96875-3.5534-1.9375-5.3301-2.9062-1.2891 0.25593-3.9854 1.9789-3.2807-0.44547 0.025-2.0503-0.017-4.1655 0.7143-6.1153-1.5863-1.3296-3.0523-2.7948-4.5419-4.2282z"
            fill="#000000" />
      </g>
      <path d="m315.04 181.98v280.77h75.266v-280.77zm2.9453 2.9453h69.375v274.88h-69.375z" fill="#000000" />
   </g>
</svg>