<?xml version="1.0" encoding="UTF-8"?>
<svg width="21.242mm" height="79.239mm" version="1.1" viewBox="0 0 75.265756 280.76861"
   xmlns="http://www.w3.org/2000/svg" xmlns:cc="http://creativecommons.org/ns#"
   xmlns:dc="http://purl.org/dc/elements/1.1/" xmlns:rdf="http://www.w3.org/1999/02/22-rdf-syntax-ns#">
   <g transform="translate(-315.04 -181.98)" shape-rendering="auto">
      <g transform="translate(1027.7 -870.42)" fill-rule="evenodd">
         <path
            d="m-683.38 1062.5c1.761 2.6493 2.1435 6.148 0.7737 9.0496-7.0228 0.5259-14.062 0.7707-21.099 1.0244 2.9936 2.1592 5.9873 4.3183 8.9809 6.4775 2.7112-0.2896 5.4222-0.5801 8.1332-0.8711-2.9933 5.1695-8.3021 8.2855-12.974 11.744-1.4028 0.9971-2.8049 1.9953-4.2007 3.0022 1.304 1.2855 2.8467 2.9394 4.5552 1.3193 2.1851-1.0813 4.3801-2.1449 6.529-3.2972 1.0407 2.8067 2.2205 6.0909 0.6778 8.9509 0.43984 2.6085 3.1782 4.0806 5.5951 4.4011 1.7393-0.5341 1.8002-3.094 4.0312-2.4024 1.4555-0.015 0.38241 2.7015 0.5161 3.8123-0.63151 1.4358-0.90369 2.5914 0.43024 3.7269 1.5102 2.0337 3.2823 3.8637 5.2068 5.5074 0.84512-1.757 1.2658-3.667 1.113-5.6208-7e-3 -2.565-0.0336-5.1298-0.0304-7.6948 1.9003 0.1037 3.9366-0.5742 5.7202 0.2096 1.5599 0.3346 4.1321 2.6236 4.1691-0.2432 0.72212-3.1292 1.1571-6.3154 1.719-9.4755 1.9108-0.2092 2.616 2.6981 4.5698 2.2428 5.3399-0.3188 10.681-0.6513 16.031-0.7476-0.70218-1.6578-1.0284-4.5313-3.3523-4.4168-7.3957-1.2136-14.299-4.4163-20.567-8.4393-2.1047-1.3152-4.1772-2.681-6.2583-4.0331 6.6272-0.7132 13.254-1.4263 19.882-2.1394-3.4698-2.136-6.9365-4.2771-10.41-6.408-3.1506 1.173-6.4601 1.8269-9.7568 2.4358-0.3048-1.9868 1.1506-4.785-0.14729-6.24-1.8073-1.106-3.5331-2.3375-5.3054-3.4975-1.5215 0.5103-3 1.1423-4.5318 1.6224zm12.984 23.424c0.495 2.9855 0.11062 6.0124-0.1849 8.9964-1.3551 0.2424-3.8293 1.2238-4.5624 0.3612 0.0796-3.6713 0.0714-7.3678 0.72116-10.995-0.30599-0.8072-2.1362-2.9964-0.3566-1.487 1.4536 1.0507 3.0193 1.9534 4.3827 3.1244zm-11.409 10.194c-1.6234 0.061-3.8145 0.8454-3.4444-1.5463-0.29495-2.0866-0.54379-4.1808-0.69057-6.2835-2.088-1.4473 1.7343-2.4791 2.4926-3.7262 0.82308-0.7489 1.7789-1.9331 1.449-0.037 0.0785 3.8641 0.13629 7.7285 0.19335 11.593z"
            fill="#000000" />
         <path
            d="m-666.7 1323c-1.7609-2.6494-2.1434-6.148-0.7736-9.0496 7.0228-0.5258 14.062-0.7707 21.099-1.0244-2.9936-2.1591-5.9873-4.3183-8.9809-6.4774-2.7112 0.2895-5.4223 0.58-8.1333 0.871 2.9934-5.1694 8.3022-8.2855 12.974-11.744 1.4028-0.9971 2.8049-1.9953 4.2007-3.0022-1.304-1.2855-2.8467-2.9394-4.5552-1.3193-2.1851 1.0813-4.3802 2.1449-6.5292 3.2972-1.0406-2.8067-2.2204-6.091-0.6777-8.9509-0.43991-2.6085-3.1782-4.0806-5.5951-4.4011-1.7393 0.5342-1.8002 3.094-4.0313 2.4024-1.4554 0.015-0.38235-2.7015-0.51607-3.8123 0.63146-1.4358 0.90361-2.5914-0.43026-3.7269-1.5102-2.0337-3.2823-3.8637-5.2068-5.5074-0.84512 1.757-1.2658 3.667-1.113 5.6208 7e-3 2.565 0.0336 5.1298 0.0304 7.6948-1.9003-0.1037-3.9366 0.5742-5.7202-0.2095-1.5599-0.3347-4.1321-2.6237-4.1691 0.2431-0.72212 3.1292-1.1571 6.3154-1.719 9.4755-1.9108 0.2092-2.616-2.6981-4.5698-2.2428-5.3399 0.3188-10.681 0.6513-16.031 0.7476 0.70215 1.6578 1.0284 4.5313 3.3523 4.4168 7.3957 1.2136 14.299 4.4163 20.567 8.4393 2.1047 1.3153 4.1772 2.681 6.2583 4.0331-6.6272 0.7132-13.254 1.4263-19.882 2.1394 3.4698 2.136 6.9365 4.2771 10.41 6.408 3.1505-1.173 6.4601-1.8269 9.7568-2.4358 0.30482 1.9868-1.1507 4.7851 0.14721 6.24 1.8074 1.106 3.5332 2.3375 5.3055 3.4975 1.5214-0.5103 2.9999-1.1422 4.5317-1.6224zm-12.984-23.424c-0.495-2.9855-0.11062-6.0124 0.1849-8.9964 1.3551-0.2424 3.8293-1.2238 4.5624-0.3612-0.0796 3.6713-0.0714 7.3678-0.72116 10.995 0.30603 0.8072 2.1362 2.9965 0.35656 1.487-1.4536-1.0507-3.0193-1.9534-4.3827-3.1244zm11.409-10.194c1.6233-0.06 3.8145-0.8454 3.4444 1.5463 0.29493 2.0866 0.54383 4.1808 0.69061 6.2835 2.088 1.4473-1.7343 2.4791-2.4926 3.7262-0.82308 0.7489-1.7789 1.9331-1.449 0.037-0.0785-3.8641-0.13638-7.7285-0.19335-11.593z"
            fill="#000000" />
         <path
            d="m-671.36 1178.5c0.0971 4.1602 0.15319 8.3213 0.19725 12.482-1.1977 0.2538-3.696 1.8644-3.0944-0.416-4e-3 -2.2207-9e-3 -4.4414 8e-3 -6.6621-1.4517-0.2648-3.9959-1.5994-4.7562-1.1457 0.94869 3.2378 1.2656 6.6247 1.3011 9.9875-1.2596 0.2389-3.0742 1.1209-2.4894-0.9221-5e-3 -2.3971-8e-3 -4.7942 0.011-7.1912-1.4375-0.2554-4.052-1.6277-4.7393-1.1299 1.0983 3.3544 1.2564 6.9155 1.2999 10.417-2.5557 0.4725-5.1201 0.8965-7.6856 1.3125 1.6335 1.0775 3.2669 2.155 4.9004 3.2324 0.88868-0.2155 1.7774-0.4309 2.666-0.6464-0.19957 1.4971-1.0154 2.8191 0.70171 3.7329 0.87399 0.7441 2.1632 2.5726 2.7684 2.6444 0.0518-2.4119 0.0726-4.8243 0.0768-7.2367 0.82943-0.2018 1.6588-0.4037 2.4883-0.6055 8e-3 2.5134 0.0553 5.0804-0.66992 7.5138 1.2626 1.0273 3.2453 3.9128 4.0481 3.7999 0.0683-4.0487 0.0773-8.0983 0.0691-12.148 1.0495-0.2552 2.099-0.5104 3.1484-0.7657 7e-3 4.3953 0.23482 8.8586-0.66046 13.186-0.47305 1.6896 1.384 3.0881 2.4204 4.2869 0.83694 0.762 2.0955 2.4279 1.7144 0.3084 0.0739-6.2096-0.0131-12.42 0.0199-18.629 2.181-0.5293 4.362-1.0586 6.543-1.5879-1.776-0.9688-3.5521-1.9375-5.3281-2.9063-2.1942 0.9452-0.66408-2.5689-0.92238-3.6681 0.0778-1.7185 1.0635-3.4305-0.97678-4.3168-1.0408-0.9537-2.0412-1.9512-3.06-2.9273z"
            fill="#000000" />
      </g>
      <path d="m315.04 181.98v280.77h75.266v-280.77zm2.9453 2.9453h69.375v274.88h-69.375z" fill="#000000" />
   </g>
</svg>