<?xml version="1.0" encoding="UTF-8"?>
<svg width="21.242mm" height="79.239mm" version="1.1" viewBox="0 0 75.265756 280.76861"
   xmlns="http://www.w3.org/2000/svg" xmlns:cc="http://creativecommons.org/ns#"
   xmlns:dc="http://purl.org/dc/elements/1.1/" xmlns:rdf="http://www.w3.org/1999/02/22-rdf-syntax-ns#">
   <g transform="translate(-315.04 -181.98)" shape-rendering="auto">
      <g transform="translate(733.51 -591.67)" fill-rule="evenodd">
         <path
            d="m-383.92 783.28c0.2365 4.3153 0.061 8.6379 0.1327 12.956-3.7479 0.32481-7.5023 0.57192-11.259 0.76178-2.7971-2.2284-5.6418-4.3959-8.4758-6.5768-0.3158 1.3633-1.3503 2.6534-0.029 3.9389 3.0673 5.8505 5.305 12.497 4.2885 19.177-0.072 1.5307-2.6609 2.7608-2.1521 3.9371 2.8273 2.3945 5.6015 4.9079 8.855 6.7232 0.2613-6.9727 0.2791-13.951 0.3488-20.927 2.8466-0.28416 5.6932-0.5683 8.5398-0.85255 0.085 7.7489 0.36 15.501 0.3807 23.247 0.1107 1.9185-2.5018 3.5135-0.6147 5.0999 2.0761 3.1189 4.8185 5.7046 7.5387 8.2506 0.3002-12.446-0.1271-24.897 0.152-37.343 3.5859-0.35893 7.1718-0.71805 10.758-1.0769 0.3371 4.227 0.5134 8.4685 0.465 12.709-3.5314-0.77871-6.6715-2.6664-9.617-4.6942-1.1776 1.8945-0.084 3.4448 1.3208 4.765 3.3502 4.042 6.7098 8.0768 9.9976 12.17 4.2082-5.4128 5.2391-12.459 5.5245-19.117 0.1533-3.0813 0.1828-6.1684 0.4018-9.2464-2.6333-2.5799-5.2698-5.1565-7.9122-7.7271-0.6317 1.3381 0.029 3.9215-1.7305 4.1745-2.9538 0.70129-5.9585 1.1496-8.9465 1.6745 0.2264-2.707 0.6656-5.4125 1.4969-8.0034-2.8463-1.933-5.9514-3.767-9.4634-4.0206z"
            fill="#000000" />
         <path
            d="m-377.77 1044.8c-0.2365-4.3153-0.06-8.6379-0.1327-12.956 3.7479-0.3248 7.5023-0.5719 11.259-0.7618 2.7971 2.2283 5.6418 4.3959 8.4758 6.5768 0.3158-1.3633 1.3503-2.6534 0.029-3.9389-3.0673-5.8505-5.305-12.497-4.2885-19.177 0.072-1.5307 2.6609-2.7608 2.1521-3.9371-2.8272-2.3945-5.6015-4.9079-8.855-6.7232-0.2614 6.9727-0.279 13.951-0.3488 20.928-2.8466 0.2841-5.6932 0.5683-8.5398 0.8525-0.085-7.7489-0.36-15.501-0.3807-23.247-0.1107-1.9185 2.5018-3.5135 0.6148-5.0999-2.0762-3.1189-4.8186-5.7046-7.5387-8.2506-0.3002 12.446 0.127 24.897-0.152 37.343-3.586 0.359-7.1719 0.7181-10.758 1.077-0.3372-4.227-0.5134-8.4685-0.465-12.709 3.5313 0.7787 6.6714 2.6665 9.617 4.6942 1.1775-1.8945 0.084-3.4447-1.3208-4.765-3.3502-4.042-6.7099-8.0768-9.9976-12.17-4.2083 5.4128-5.2392 12.459-5.5246 19.117-0.1533 3.0813-0.1828 6.1684-0.4017 9.2464 2.6332 2.5799 5.2697 5.1565 7.9121 7.727 0.6317-1.338-0.029-3.9215 1.7305-4.1744 2.9538-0.7013 5.9585-1.1496 8.9466-1.6745-0.2265 2.707-0.6656 5.4125-1.4969 8.0034 2.8462 1.9331 5.9514 3.767 9.4634 4.0206z"
            fill="#000000" />
         <path
            d="m-380.58 897.66c0.1214 4.6288 0.1921 9.2587 0.2462 13.889-4.1398 0.94096-8.3172 1.7084-12.508 2.3848 0.9681 1.1041 1.6519 3.1103 2.8373 3.6402 3.2384-0.78566 6.4769-1.5713 9.7154-2.357 0.1567 4.0184 0.06 8.0584-0.4785 12.047 0.7943 1.7612 2.6708 4.6071 3.9225 4.9392 0.091-5.9416 0.01-11.884 0.018-17.826 3.9199-0.95117 7.8399-1.9024 11.76-2.8535-2.2173-0.69573-4.3637-3.4929-6.647-2.6641-1.473 0.47114-4.1999 2.0256-5.0675 1.3196 0.054-2.892-0.3361-5.9405 0.9079-8.6574-1.6351-1.2042-3.1623-2.5473-4.7067-3.8615z"
            fill="#000000" />
      </g>
      <path d="m315.04 181.98v280.77h75.266v-280.77zm2.9453 2.9453h69.375v274.88h-69.375z" fill="#000000" />
   </g>
</svg>