<?xml version="1.0" encoding="UTF-8"?>
<svg width="21.242mm" height="79.239mm" version="1.1" viewBox="0 0 75.265756 280.76861"
   xmlns="http://www.w3.org/2000/svg" xmlns:cc="http://creativecommons.org/ns#"
   xmlns:dc="http://purl.org/dc/elements/1.1/" xmlns:rdf="http://www.w3.org/1999/02/22-rdf-syntax-ns#">
   <g transform="translate(-315.04 -181.98)" shape-rendering="auto">
      <g transform="translate(6.867 -1.1217)" fill-rule="evenodd">
         <path
            d="m363.91 191.57c-8.6066 3.9932-18.171 5.0863-27.505 6.0577-0.066-1.2948 1.9763-4.0217 0.027-4.0394-1.8024 0.0912-4.8077-1.5689-4.6495 1.3079-1.5316 5.9038-5.0916 10.952-8.1674 16.125 2.1994-0.42548 4.8751-1.8421 6.7833-1.6272 1.3494 3.033 1.9137 6.3323 2.4057 9.593-5.9932 0.38886-11.991 0.71244-17.993 0.93564l8.7822 6.3114c3.2812-0.34698 6.5619-0.69805 9.8428-1.0485-0.064 2.3843 0.7848 5.1253-0.72 7.1997-1.12 1.28-1.0169 2.4937 0.4733 3.356 2.007 1.8245 4.3899 3.1622 6.8027 4.3693 0.3421-1.4024-1.2085-4.2521 0.6974-4.402 5.692-0.88652 11.425-1.6496 17.189-1.8052 0.1269 1.2525-0.4413 2.6574 1.3639 2.664 2.0755 1.249 2.8556-0.84965 2.6865-2.6008 0.5524-4.1145 1.0714-8.2334 1.5666-12.355 4.433-0.20049 8.8724-0.35237 13.288-0.81332-2.7353-2.117-4.7292-5.3017-8.0714-6.554-1.3647 0.12486-3.5073 1.0396-4.3909 0.60539 0.3398-2.7238 0.6723-5.4487 1.0598-8.1662-1.0989-0.82103-3.6432-1.4127-1.7199-2.8174 1.6901-2.2012 3.4139-4.3762 5.1415-6.548-1.3171-2.0069-2.5389-4.2416-4.559-5.6247l-0.334-0.12313h-5e-4zm-5.5164 11.304c-6.981 1.6458-13.99 3.1827-21.049 4.4585-1.3743-0.54192-4.0161-2.5221-1.6407-3.568 8.0039-1.1716 15.984-2.499 23.972-3.7733-0.393 0.97491-0.7554 1.9692-1.2818 2.8828zm-0.1058 6.813c-0.2425 2.123 0.2251 5.0462-0.7959 6.6448-1.7927 0.14495-4.7165 1.4235-5.8255 0.6128 0.4081-2.212-0.8537-6.2873 2.1428-6.7629 1.4655-0.35435 2.9778-0.43343 4.4786-0.49475zm-13.155 1.7771c-0.2481 2.1094 0.5759 5.1851-0.3555 6.6802-1.9367-0.0495-4.7782 0.93397-6.1499 0.14306 0.1429-1.7799-0.9438-4.5034-1e-3 -5.6925 2.1684-0.4243 4.3367-0.84856 6.5051-1.2729v0.14212zm11.77 16.212c-1.6845 0.11464-4.2742 1.0738-5.4149 0.4757 0.2413-1.6077-0.4471-4.0354 0.3988-5.1153 1.6914-0.01 4.3618-1.0788 5.4277-0.45241-0.1708 1.6945-0.2817 3.3941-0.4116 5.092zm-11.685-3.7634c-0.2091 1.7259 0.5099 4.2788-0.2988 5.4754-1.7045-3e-3 -4.2124 0.78277-5.4266 0.0665 0.1299-1.5403-0.7943-3.9337 0.01-4.9184 1.857-0.15083 4.0862-0.71867 5.718-0.62347z"
            fill="#000000" />
         <path
            d="m327.69 455.4c8.6066-3.9932 18.171-5.0863 27.505-6.0577 0.066 1.2948-1.9763 4.0217-0.027 4.0394 1.8024-0.0912 4.8078 1.5689 4.6495-1.3079 1.5317-5.9038 5.0916-10.952 8.1675-16.125-2.1995 0.42548-4.8752 1.8422-6.7834 1.6272-1.3494-3.033-1.9137-6.3323-2.4056-9.593 5.9932-0.38884 11.991-0.71242 17.993-0.93563-2.9274-2.1038-5.8547-4.2076-8.7821-6.3114-3.2813 0.34698-6.562 0.69807-9.8429 1.0485 0.064-2.3843-0.7847-5.1253 0.72-7.1997 1.12-1.28 1.017-2.4937-0.4733-3.356-2.007-1.8245-4.3899-3.1622-6.8026-4.3693-0.3422 1.4024 1.2084 4.2521-0.6975 4.402-5.692 0.88653-11.425 1.6496-17.189 1.8052-0.127-1.2525 0.4412-2.6574-1.3639-2.664-2.0756-1.249-2.8557 0.84965-2.6866 2.6008-0.5524 4.1145-1.0714 8.2334-1.5665 12.355-4.433 0.20048-8.8725 0.35238-13.288 0.81332 2.7353 2.117 4.7291 5.3017 8.0714 6.5539 1.3646-0.12485 3.5072-1.0396 4.3908-0.60538-0.3397 2.7238-0.6722 5.4487-1.0597 8.1662 1.0988 0.82103 3.6431 1.4127 1.7198 2.8174-1.6901 2.2012-3.4139 4.3762-5.1414 6.548 1.317 2.0069 2.5389 4.2416 4.559 5.6247l0.334 0.12313h5e-4zm5.5164-11.304c6.9811-1.6458 13.99-3.1827 21.049-4.4585 1.3743 0.54192 4.0161 2.5221 1.6407 3.568-8.0039 1.1716-15.984 2.499-23.972 3.7733 0.393-0.97491 0.7554-1.9692 1.2818-2.8828zm0.1058-6.813c0.2425-2.123-0.225-5.0462 0.7959-6.6448 1.7927-0.14496 4.7165-1.4235 5.8256-0.61279-0.4082 2.212 0.8537 6.2872-2.1429 6.7629-1.4654 0.35435-2.9778 0.43343-4.4786 0.49474zm13.155-1.777c0.2492-2.1094-0.576-5.1851 0.3555-6.6802 1.9367 0.0495 4.7783-0.93397 6.15-0.14306-0.1429 1.7799 0.9437 4.5035 9e-4 5.6926-2.1683 0.4243-4.3367 0.84856-6.5051 1.2729l-1e-3 -0.14211zm-11.77-16.212c1.6845-0.11462 4.2742-1.0738 5.4149-0.4757-0.2413 1.6077 0.4471 4.0354-0.3988 5.1153-1.6914 0.01-4.3617 1.0788-5.4277 0.45241 0.1708-1.6945 0.2817-3.3941 0.4116-5.092zm11.685 3.7634c0.2091-1.7259-0.5099-4.2788 0.2988-5.4754 1.7046 3e-3 4.2124-0.78276 5.4266-0.0665-0.1299 1.5403 0.7944 3.9337-0.01 4.9185-1.857 0.15083-4.0861 0.71864-5.718 0.62346z"
            fill="#000000" />
         <path transform="matrix(.038262 -.0046955 0 .044457 414.42 253.6)"
            d="m-2029.9 1078c35.867 109.97 55.413 229.13 34.74 344.07-12.583 32.728-17.564 59.358 17.793 79.474 22.024 17.276 56.242 65.631 70.364 63.394 4.163-146.99 0.792-294.05 2.3015-441.07-41.657-15.496-83.407-30.741-125.2-45.869z"
            fill="#000000" />
         <path transform="matrix(.038262 -.0046955 0 .044457 414.42 253.6)"
            d="m-1874.7 1078c36.924 159.87 48.262 327.31 20.358 489.55 32.49 26.378 80.398 91.914 102.72 93.699 4.2583-179.11 0.698-358.28 2.0542-537.41-41.639-15.474-83.362-30.724-125.13-45.844z"
            fill="#000000" />
         <path transform="matrix(.038262 -.0046955 0 .044457 414.42 253.6)"
            d="m-1670.4 1013c6.4388 207.04 7.4856 414.32 9.8884 621.37-25.644 52.279 4.5105 98.813 40.191 138.8 17.886 19.756 53.09 68.481 43.042 14.187-1.4859-216.46 4.2776-432.95 21.107-648.8-7.2029-53.674-81.415-80.863-114.23-125.55v-0.01z"
            fill="#000000" />
      </g>
      <path d="m315.04 181.98v280.77h75.266v-280.77zm2.9453 2.9453h69.375v274.88h-69.375z" fill="#000000" />
   </g>
</svg>