<?xml version="1.0" encoding="UTF-8"?>
<svg width="21.242mm" height="79.239mm" version="1.1" viewBox="0 0 75.266 280.77" xmlns="http://www.w3.org/2000/svg"
   xmlns:cc="http://creativecommons.org/ns#" xmlns:dc="http://purl.org/dc/elements/1.1/"
   xmlns:rdf="http://www.w3.org/1999/02/22-rdf-syntax-ns#">
   <g transform="translate(-315.04 -181.98)" shape-rendering="auto">
      <g transform="translate(880.24 -870.4)" fill-rule="evenodd">
         <path
            d="m-519.88 1060.9c-0.29699 0.34 0.42612 0.087 0 0zm2.2954 11.028c-6.0611 0.8492-12.145 1.5498-18.248 2.0091 0.21014-1.9755-0.43708-3.4931-2.2079-4.4328-1.2744-1.0336-2.5487-2.0672-3.8362-3.0845-1.3797 0.668-5.1652 1.55-3.5326 3.4827 0.68139 1.3267 1.8521 3.3395 1.653 4.5052-4.6094 0.223-9.2243 0.2934-13.838 0.3735 2.4839 2.1392 4.9678 4.2784 7.4518 6.4176 2.6219-0.2192 5.2438-0.4382 7.8657-0.6574 0.42223 2.9195 0.70447 5.8676 0.6567 8.8203-0.95336 1.5487-2.6001 3.1822-0.23432 4.209 1.3067 1.0491 2.7138 2.0021 4.2766 2.6267-3.4813 5.2923-9.1432 8.6343-14.997 10.716-1.2925 0.5387-4.0138 1.0411-1.308 1.4827 1.9939 0.457 3.8123 1.799 5.8569 1.7846 5.4424-0.5976 10.092-3.9634 14.121-7.4444 1.1285-1.5096 4.0575-2.6789 3.3962-4.7963-0.18327-1.4699-2.0065-3.5028-1.7056-4.4177 3.1855-0.1318 6.3711-0.2635 9.5566-0.3954-0.93654 1.0693-3.3704 2.3342-3.3387 3.277 7.0148 3.4465 12.25 9.4061 17.849 14.684 0.8349-3.164 1.6697-6.3281 2.5045-9.4922-2.6605-2.1393-5.5759-3.9233-8.4722-5.7119-0.78729-1.6167 1.9504-2.8513 1.7564-4.6378 0.6079-4.4237 0.957-8.8768 1.3915-13.319 5.0416-0.4259 10.084-0.8419 15.126-1.2638-3.0734-2.1756-6.1468-4.3513-9.2203-6.5268-1.6172 0.034-4.0739 0.9552-5.1584 0.4547-0.2231-1.6587 1.676-4.3448-0.5855-4.9022-2.7977-1.3955-5.6091-2.7652-8.4634-4.0417 1.1156 3.3019 1.7847 6.7863 1.6845 10.281zm-0.4769 6.7276c-0.37669 2.1279-0.15813 5.2689-0.80726 6.7763-1.6249-0.2221-3.5688-1.6326-4.6688 0.062-2.9297 1.9207-6.6073 2.642-10.067 2.2752-2.0063 0-1.0414-2.5169-1.4511-3.8344 0.0513-1.2606-0.53194-3.0598-0.0969-3.9888 5.7013-0.4762 11.403-0.9524 17.104-1.4286l-0.013 0.1384h-2e-4zm-0.079 14.358c0.43631 0.9888 1.7922 2.6187-8e-4 1.3821-0.76557-0.5529-3.5534-1.6121-1.2062-1.4062 0.35369 0.051 0.94196-0.1571 1.207 0.024z"
            fill="#000000" />
         <path
            d="m-535.25 1324.7c0.297-0.34-0.42613-0.086 0 0zm-2.2954-11.028c6.0611-0.8493 12.145-1.5499 18.248-2.0092-0.21014 1.9755 0.43709 3.4931 2.2079 4.4328 1.2744 1.0336 2.5487 2.0673 3.8362 3.0845 1.3797-0.6679 5.1652-1.55 3.5326-3.4827-0.6814-1.3267-1.8521-3.3395-1.653-4.5051 4.6094-0.2231 9.2243-0.2935 13.838-0.3736-2.4839-2.1392-4.9679-4.2784-7.4518-6.4176-2.6219 0.2192-5.2438 0.4382-7.8657 0.6574-0.4222-2.9195-0.7045-5.8676-0.6567-8.8203 0.9534-1.5487 2.6001-3.1822 0.2343-4.209-1.3067-1.0491-2.7137-2.0021-4.2766-2.6267 3.4813-5.2923 9.1432-8.6343 14.997-10.716 1.2925-0.5387 4.0138-1.0411 1.308-1.4827-1.9939-0.4571-3.8123-1.799-5.8569-1.7846-5.4424 0.5976-10.092 3.9634-14.121 7.4444-1.1285 1.5096-4.0575 2.6789-3.3962 4.7963 0.18327 1.4699 2.0065 3.5028 1.7056 4.4177-3.1855 0.1318-6.3711 0.2635-9.5566 0.3954 0.93654-1.0694 3.3704-2.3342 3.3387-3.277-7.0148-3.4465-12.25-9.4061-17.849-14.684-0.8349 3.1641-1.6697 6.3282-2.5045 9.4923 2.6605 2.1393 5.5759 3.9233 8.4723 5.7119 0.78729 1.6166-1.9505 2.8513-1.7565 4.6378-0.60792 4.4237-0.95695 8.8768-1.3915 13.319-5.0416 0.4259-10.084 0.8419-15.126 1.2638 3.0734 2.1756 6.1468 4.3512 9.2203 6.5268 1.6172-0.034 4.0739-0.9551 5.1584-0.4546 0.22309 1.6586-1.676 4.3448 0.58555 4.9021 2.7976 1.3955 5.6091 2.7652 8.4634 4.0417-1.1156-3.3019-1.7847-6.7862-1.6845-10.281zm0.4769-6.7277c0.37669-2.128 0.15813-5.2689 0.80726-6.7763 1.6249 0.2221 3.5688 1.6325 4.6688-0.062 2.9297-1.9207 6.6073-2.642 10.067-2.2752 2.0063 0 1.0414 2.5169 1.4511 3.8344-0.20581 1.2313 0.91884 3.59-0.22845 4.0161-5.5928 0.4671-11.186 0.9341-16.778 1.4013l0.013-0.1384h2e-4zm0.078-14.358c-0.43636-0.9887-1.7921-2.6187 7.6e-4 -1.3821 0.76557 0.5528 3.5535 1.6121 1.2062 1.4062-0.35367-0.051-0.94201 0.1571-1.207-0.024z"
            fill="#000000" />
         <path
            d="m-518.99 1152.7c-2.8824 1.6978-6.2237 2.4583-9.4193 3.3643-3.3082 0.8483-6.5889 1.7957-9.903 2.6201 0.24555 0.6048-0.23948 2.2528 0.61898 1.9753 0.67934-0.1792 1.3587-0.3585 2.038-0.5378 1.3074 2.9042 1.7397 6.1438 1.7321 9.309-1.3138 1.2784-0.0838 2.2035 1.2281 2.6567 1.7525 0.3953 0.3038-2.1083 2.1784-1.6779 2.2205-0.9092 0.37693 2.4488 0.38533 3.6396-0.64983 2.5624-1.6724 5.0355-3.0924 7.2686 0.38426 0.1999 0.70076 1.5394 1.1994 0.7622 2.7492-3.538 3.7868-8.0174 4.6594-12.321 1.3755 0.024 3.7675-1.4131 4.4563-0.4037 0.23037 0.9575 1.8678 1.3639 1.5264 0 0.49221-3.6508 0.85158-7.3179 1.3269-10.971-0.97689-0.4346-1.9521-0.8729-2.9336-1.2969 0.81445 3.1912 0.0538 6.4757-0.0793 9.7014-1.1356-0.8482-2.7459 1.0858-3.813 0.6289 0.55785-2.8691 0.79588-5.8005 1.559-8.629-1.0409-0.5645-2.0739-1.1313-0.40437-1.2825 3.6654-0.9671 7.3308-1.9341 10.996-2.9011-1.421-0.6317-2.8327-1.2864-4.2596-1.9032zm-10.482 5.7891c1.0825 3.0791 0.75826 6.3823 0.4258 9.5605-1.4574 0.2938-3.3422 1.33-2.8944-0.9577-0.16465-2.0033-0.34273-4.0059-0.45557-6.013-0.52672-0.584-2.4969-1.4847-0.84361-1.596 1.2559-0.3313 2.5118-0.6628 3.7678-0.9938z"
            fill="#000000" />
         <path
            d="m-521.85 1181.5c-3.9467 2.3981-8.6051 2.9825-13.047 3.8836-0.36339 1.8893 2.5489 1.5537 3.7392 1.056 2.3371-0.5795 4.674-1.1599 7.0111-1.7394-0.97127 1.2696-1.6637 4.3582-3.5092 3.8316-1.2804-0.2166-4.1598-2.056-4.0599-0.079 0.98597 0.697 3.0003 1.2175 3.3676 1.9359-2.6436 2.1148-5.6072 3.7996-8.6721 5.2217 1.235 2.1868 3.7744-0.2174 5.736-0.1582 1.8686-0.4079 3.7538-0.7484 5.6554-0.9595-0.66217 0.8889-1.1273 3.1076-2.2053 3.0467-1.4611-0.9507-2.7005-1.0688-2.0294 0.9551 0.58127 1.9839-0.95568 3.4162-2.0301 4.8789-1.6431 2.1837-3.7101 3.9887-5.7722 5.7619 1.8514 1.3813 3.1126-0.3553 4.4155-1.548 1.2328-1.143 2.4232-2.331 3.5869-3.5441 1.0496 2.3622 3.671 3.661 6.1942 3.3358 2.6309-0.1902 5.164-0.9778 7.7183-1.582-0.6222-1.6602-1.4631-3.2242-2.2782-4.7948 1.1814-0.8493 2.1745-2.3028 0.24001-2.8362-1.5876-1.0379-3.1568-2.1038-4.7565-3.1231 0.37912-1.1246 2.5906-1.5535 2.5298-2.0339-1.6609-0.7102-0.80916-4.363-2.9436-2.965-0.8662-0.3016-2.3489-0.4209-0.98731-1.3547 1.1264-1.6554 3.2245-3.5137 2.8928-5.5743-0.25106-0.5307-0.50033-1.1723-0.79556-1.6149zm-4.4312 9.6143c0.87621 0.5295 3.1364 1.3031 0.87025 1.433-1.4146 0.2443-4.5454 1.1128-4.844 0.9308 1.3726-0.7024 2.7527-1.4179 3.9737-2.3638zm2.4546 6.0317c1.6497 1.3498 3.3877 2.6616 4.7052 4.3471 0.79174 2.1286-1.4153 3.1504-3.1149 3.3995-1.5949 0.4188-4.3194 0.7238-4.7544-1.4328-0.12953-2.2961 1.6997-4.1518 2.8665-5.9951 0.21473 0.051 0.14037-0.2933 0.29752-0.3187z"
            fill="#000000" />
         <path
            d="m-528.79 1209.4c-1.3473 1.1158-0.78961 2.9282-1.1063 4.4439-0.73524 7.5565-3.8949 14.847-9.0052 20.474 1.9613 1.0882 2.9539-1.37 4.2039-2.4792 2.8301-3.2817 5.092-7.0796 6.4425-11.206-0.31003 3.8847 0.71201 7.8121-0.084 11.664 0.36196 0.9951 1.2972 2.1811-0.4223 2.1319-2.519 0.6745-5.0616 1.2568-7.6126 1.7962 0.77993 0.6797 1.5599 1.3593 2.3398 2.039 5.3418-1.651 10.684-3.3021 16.025-4.9531-1.4663-0.8822-2.8375-2.909-4.4362-1.1623-1.0369 0.3574-2.9806 1.7272-3.5622 1.1528 0.0605-3.2305-0.01-6.4827 0.50378-9.6836-0.78215-1.1819-2.8496-2.1555-2.5556-3.6186 0.43944-0.9723 0.41968-3.9421 1.2424-1.6282 2.3579 4.2017 5.7167 7.6958 8.7253 11.421 1.9409-0.6137 3.9623-0.8757 5.9517-1.2774-0.1934-1.9847-2.3522-0.7617-3.5121-1.6154-1.9691-1.261-3.4173-3.1831-5.072-4.8156-2.2074-2.3626-4.3616-4.7869-6.2431-7.4208 0.45768-1.6655-0.0308-3.1674-1.1685-4.4196-0.20876-0.2889-0.43473-0.5768-0.6546-0.8427z"
            fill="#000000" />
         <path d="m-527.12 1231.8c0.10507 0.5676-0.18306 0.6832 0 0z" fill="#000000" />
         <path d="m-527.12 1231.8c0.10507 0.5676-0.18306 0.6832 0 0z" fill="#000000" />
      </g>
      <path d="m315.04 181.98v280.77h75.266v-280.77zm2.9453 2.9453h69.375v274.88h-69.375z" fill="#000000" />
   </g>
</svg>